<?xml version="1.0" standalone="no"?>
<!DOCTYPE svg PUBLIC "-//W3C//DTD SVG 20010904//EN"
 "http://www.w3.org/TR/2001/REC-SVG-20010904/DTD/svg10.dtd">
<svg version="1.0" xmlns="http://www.w3.org/2000/svg"
 width="260.000000pt" height="260.000000pt" viewBox="0 0 260.000000 260.000000"
 preserveAspectRatio="xMidYMid meet">
<metadata>
Created by potrace 1.14, written by Peter Selinger 2001-2017
</metadata>
<g transform="translate(0.000000,260.000000) scale(0.100000,-0.100000)"
fill="#000000" stroke="none">
<path d="M890 2470 c-117 -26 -184 -49 -278 -97 -278 -142 -505 -420 -578
-708 -11 -46 -12 -48 -19 -80 -12 -51 -14 -287 -4 -345 6 -30 11 -64 13 -75 2
-11 7 -36 11 -55 11 -43 10 -42 18 -60 3 -8 11 -33 18 -55 32 -105 137 -269
236 -370 168 -170 437 -305 637 -320 34 -2 63 -5 66 -6 3 0 19 0 37 1 25 1 46
-10 99 -54 125 -103 250 -146 409 -141 97 3 114 5 200 26 22 5 49 12 61 14 94
21 279 124 384 214 113 98 179 175 249 293 56 94 120 259 136 353 14 79 13
298 -1 375 -21 110 -21 110 -39 170 -81 264 -285 498 -551 631 -56 28 -108 51
-115 52 -8 2 -18 5 -24 8 -9 6 -50 16 -135 35 -14 3 -65 8 -115 11 -80 4 -93
8 -120 32 -68 63 -187 133 -246 145 -13 3 -35 8 -49 12 -52 14 -225 11 -300
-6z m334 -1004 c29 -14 66 -27 82 -30 61 -10 111 -17 175 -25 101 -13 145 -43
187 -126 21 -43 26 -130 10 -176 -10 -30 -62 -81 -99 -96 -20 -9 -33 -8 -57 4
-18 9 -32 19 -32 23 0 16 -101 82 -152 100 -49 17 -80 22 -193 35 -99 11 -139
28 -180 77 -37 44 -47 73 -51 143 -4 97 42 168 120 185 27 6 37 1 84 -41 28
-26 76 -59 106 -73z"/>
</g>
</svg>
